<svg width="182" height="38" viewBox="0 0 182 38" fill="none" xmlns="http://www.w3.org/2000/svg">
<path fill-rule="evenodd" clip-rule="evenodd" d="M89.2123 17.8907C89.7992 17.8907 90.3182 17.7684 90.7694 17.5239C91.2205 17.2793 91.5727 16.918 91.8258 16.4398C92.0789 15.9617 92.2054 15.3758 92.2054 14.6823V12.8536C92.2054 12.3937 92.3173 12.0306 92.541 11.7641C92.7648 11.4977 93.0601 11.3644 93.4269 11.3644C93.7937 11.3644 94.0908 11.4977 94.3182 11.7641C94.5456 12.0306 94.6594 12.3937 94.6594 12.8536V17.7484H96.2V12.8208C96.2 12.2441 96.0789 11.7367 95.8368 11.2987C95.5947 10.8607 95.2738 10.5249 94.8739 10.2913C94.4741 10.0577 94.0468 9.94092 93.5919 9.94092C92.5869 9.94092 91.8643 10.3862 91.4241 11.2768C91.248 10.8169 90.9546 10.4793 90.5438 10.2639C90.1329 10.0486 89.6708 9.94092 89.1572 9.94092C88.5924 9.94092 88.0898 10.0632 87.6497 10.3077C87.2095 10.5523 86.8629 10.9155 86.6098 11.3973C86.3567 11.8791 86.2301 12.4631 86.2301 13.1493V14.6823C86.2301 15.3758 86.3567 15.9617 86.6098 16.4398C86.8629 16.918 87.2132 17.2793 87.6607 17.5239C88.1082 17.7684 88.6254 17.8907 89.2123 17.8907ZM50.0922 17.8907C50.7011 17.8907 51.2458 17.7776 51.7263 17.5512C52.2068 17.3249 52.581 17.0129 52.8488 16.615C53.1165 16.2172 53.2504 15.7627 53.2504 15.2517C53.2504 14.8137 53.1825 14.4578 53.0468 14.1841C52.9111 13.9103 52.7259 13.6421 52.4911 13.3793C52.3517 13.2114 52.2527 13.0818 52.194 12.9905C52.1353 12.8993 52.1023 12.7989 52.095 12.6894H50.5544C50.5544 12.9741 50.6039 13.2095 50.7029 13.3957C50.802 13.5818 50.9505 13.7881 51.1486 14.0144C51.3173 14.2261 51.4439 14.4067 51.5282 14.5564C51.6126 14.706 51.6548 14.8867 51.6548 15.0984C51.6548 15.5291 51.5136 15.8649 51.2311 16.1058C50.9487 16.3467 50.569 16.4672 50.0922 16.4672C49.6007 16.4672 49.2192 16.3139 48.9478 16.0073C48.6763 15.7007 48.5406 15.2335 48.5406 14.6057V10.0833H47V14.6823C47 15.7189 47.2788 16.5128 47.8363 17.064C48.3939 17.6151 49.1458 17.8907 50.0922 17.8907ZM57.311 17.8907C57.9272 17.8907 58.4738 17.7739 58.9506 17.5403C59.4275 17.3067 59.7979 16.9672 60.062 16.5219C60.3261 16.0766 60.4582 15.5474 60.4582 14.9342C60.4582 14.467 60.3903 14.0636 60.2546 13.7242C60.1189 13.3847 59.9538 13.1019 59.7594 12.8755C59.565 12.6492 59.3137 12.3974 59.0056 12.12C58.7709 11.901 58.5856 11.7185 58.4499 11.5725C58.3142 11.4265 58.2023 11.2604 58.1143 11.0743C58.0262 10.8881 57.9822 10.6782 57.9822 10.4446V10.0833H56.4416V10.5541C56.4416 10.9045 56.5003 11.2203 56.6177 11.5013C56.7351 11.7824 56.88 12.0269 57.0524 12.235C57.2248 12.443 57.454 12.693 57.7401 12.9851C58.1143 13.3647 58.3949 13.6968 58.582 13.9815C58.769 14.2662 58.8626 14.5947 58.8626 14.967C58.8626 15.4342 58.7232 15.8011 58.4444 16.0675C58.1656 16.334 57.7878 16.4672 57.311 16.4672C56.8194 16.4672 56.4361 16.3139 56.161 16.0073C55.8859 15.7007 55.7484 15.2335 55.7484 14.6057V14.1896H54.2078V14.6823C54.2078 15.7189 54.4884 16.5128 55.0496 17.064C55.6108 17.6151 56.3646 17.8907 57.311 17.8907ZM66.7306 17.064C66.1804 17.6151 65.4394 17.8907 64.5077 17.8907C63.9135 17.8907 63.3871 17.7757 62.9286 17.5458C62.4701 17.3158 62.1125 16.9837 61.8557 16.5493C61.599 16.115 61.4706 15.6021 61.4706 15.0108V14.5181H63.0112V14.9342C63.0112 15.416 63.1487 15.7919 63.4238 16.062C63.6989 16.3321 64.0602 16.4672 64.5077 16.4672C64.9773 16.4672 65.3459 16.3139 65.6137 16.0073C65.8814 15.7007 66.0153 15.2335 66.0153 14.6057V13.445C66.0153 12.9559 65.8869 12.6 65.6302 12.3773C65.3734 12.1547 65.0543 12.0433 64.6728 12.0433C64.2473 12.0433 63.9319 12.1528 63.7264 12.3718C63.521 12.5908 63.4183 12.8609 63.4183 13.1822V13.3355H61.8777V13.1822C61.8777 12.7076 61.9878 12.2824 62.2079 11.9065C62.4279 11.5305 62.7287 11.2367 63.1102 11.025C63.4917 10.8133 63.9135 10.7074 64.3757 10.7074C64.6838 10.7074 64.9883 10.775 65.289 10.91C65.5898 11.0451 65.8319 11.2622 66.0153 11.5615V10.0833H67.5559V14.6823C67.5559 15.7189 67.2808 16.5128 66.7306 17.064ZM71.7265 17.8907C72.3428 17.8907 72.8893 17.7739 73.3662 17.5403C73.843 17.3067 74.2135 16.9672 74.4776 16.5219C74.7417 16.0766 74.8737 15.5474 74.8737 14.9342C74.8737 14.467 74.8059 14.0636 74.6702 13.7242C74.5344 13.3847 74.3694 13.1019 74.175 12.8755C73.9806 12.6492 73.7293 12.3974 73.4212 12.12C73.1864 11.901 73.0012 11.7185 72.8655 11.5725C72.7297 11.4265 72.6179 11.2604 72.5298 11.0743C72.4418 10.8881 72.3978 10.6782 72.3978 10.4446V10.0833H70.8572V10.5541C70.8572 10.9045 70.9159 11.2203 71.0333 11.5013C71.1506 11.7824 71.2955 12.0269 71.4679 12.235C71.6403 12.443 71.8696 12.693 72.1557 12.9851C72.5298 13.3647 72.8104 13.6968 72.9975 13.9815C73.1846 14.2662 73.2781 14.5947 73.2781 14.967C73.2781 15.4342 73.1387 15.8011 72.86 16.0675C72.5812 16.334 72.2034 16.4672 71.7265 16.4672C71.235 16.4672 70.8517 16.3139 70.5766 16.0073C70.3015 15.7007 70.1639 15.2335 70.1639 14.6057V14.1896H68.6233V14.6823C68.6233 15.7189 68.9039 16.5128 69.4652 17.064C70.0264 17.6151 70.7802 17.8907 71.7265 17.8907ZM77.5918 15.3941V17.7484H75.9962V14.2991C75.9962 13.226 76.2199 12.3773 76.6674 11.7532C77.1149 11.129 77.6743 10.6947 78.3456 10.4501C79.0168 10.2055 79.7376 10.0833 80.5079 10.0833H82.7968V11.5068H80.728C79.833 11.5068 79.0975 11.6528 78.5216 11.9448C77.9458 12.2368 77.6028 12.6784 77.4927 13.2698C77.6615 13.0727 77.8651 12.9157 78.1035 12.7989C78.3419 12.6821 78.6005 12.6237 78.8793 12.6237C79.2167 12.6237 79.5377 12.7241 79.8421 12.9248C80.1466 13.1256 80.3832 13.4267 80.5519 13.8282C81.0068 13.0252 81.7 12.6237 82.6317 12.6237C83.1159 12.6237 83.5451 12.7368 83.9192 12.9632C84.2934 13.1895 84.585 13.5015 84.7941 13.8994C85.0031 14.2972 85.1077 14.7444 85.1077 15.2408V17.7484H83.5121V15.3612C83.5121 14.9378 83.4222 14.613 83.2425 14.3867C83.0627 14.1604 82.8078 14.0472 82.4777 14.0472C82.1549 14.0472 81.8853 14.1567 81.6689 14.3757C81.4524 14.5947 81.3442 14.8977 81.3442 15.2846V16.8723H79.7596V15.2736C79.7596 14.8867 79.6679 14.5856 79.4845 14.3702C79.3011 14.1549 79.0443 14.0472 78.7142 14.0472C78.3914 14.0472 78.1237 14.1622 77.9109 14.3921C77.6982 14.6221 77.5918 14.9561 77.5918 15.3941ZM88.1614 16.0073C88.4218 16.3139 88.7721 16.4672 89.2123 16.4672C89.6524 16.4672 90.0046 16.3139 90.2687 16.0073C90.5328 15.7007 90.6648 15.2335 90.6648 14.6057V13.1822C90.6648 12.5762 90.5328 12.1218 90.2687 11.8189C90.0046 11.5159 89.6524 11.3644 89.2123 11.3644C88.7721 11.3644 88.4218 11.5159 88.1614 11.8189C87.9009 12.1218 87.7707 12.5762 87.7707 13.1822V14.6057C87.7707 15.2335 87.9009 15.7007 88.1614 16.0073ZM100.767 17.8907C101.39 17.8907 101.944 17.7903 102.428 17.5896C102.913 17.3888 103.289 17.1114 103.556 16.7574C103.824 16.4033 103.958 16.0036 103.958 15.5583C103.958 15.0984 103.842 14.7225 103.611 14.4305C103.38 14.1385 103.052 13.9523 102.626 13.872C103.441 13.5946 103.848 13.08 103.848 12.328C103.848 11.8973 103.718 11.4995 103.457 11.1345C103.197 10.7695 102.834 10.4793 102.368 10.2639C101.902 10.0486 101.376 9.94092 100.789 9.94092C100.172 9.94092 99.6204 10.0595 99.1326 10.2968C98.6447 10.534 98.2669 10.8553 97.9991 11.2604C97.7314 11.6656 97.5975 12.1127 97.5975 12.6018V12.8755H99.1381V12.6784C99.1381 12.4375 99.2041 12.2167 99.3362 12.016C99.4682 11.8152 99.6571 11.6546 99.9029 11.5342C100.149 11.4137 100.433 11.3535 100.756 11.3535C101.218 11.3535 101.583 11.4502 101.851 11.6437C102.118 11.8371 102.252 12.0835 102.252 12.3828C102.252 12.923 101.871 13.1931 101.108 13.1931H100.305V14.5728H101.108C101.467 14.5728 101.766 14.644 102.005 14.7863C102.243 14.9287 102.362 15.1568 102.362 15.4707C102.362 15.7773 102.219 16.0219 101.933 16.2044C101.647 16.3869 101.255 16.4781 100.756 16.4781C100.264 16.4781 99.8717 16.3431 99.5783 16.073C99.2848 15.8029 99.1381 15.4598 99.1381 15.0437V14.7371H97.5975V15.1203C97.5975 15.6751 97.7277 16.1624 97.9881 16.5822C98.2486 17.0019 98.619 17.3249 99.0996 17.5512C99.5801 17.7776 100.136 17.8907 100.767 17.8907ZM110.34 17.064C109.79 17.6151 109.053 17.8907 108.129 17.8907C107.534 17.8907 107.006 17.7757 106.544 17.5458C106.082 17.3158 105.722 16.9837 105.466 16.5493C105.209 16.115 105.08 15.6021 105.08 15.0108V14.5181H106.621V14.978C106.621 15.4379 106.759 15.8011 107.034 16.0675C107.309 16.334 107.674 16.4672 108.129 16.4672C108.591 16.4672 108.956 16.3157 109.223 16.0128C109.491 15.7098 109.625 15.2554 109.625 14.6495V13.1822C109.625 12.5762 109.491 12.1218 109.223 11.8189C108.956 11.5159 108.591 11.3644 108.129 11.3644C107.674 11.3644 107.309 11.4977 107.034 11.7641C106.759 12.0306 106.621 12.3937 106.621 12.8536V12.9851H105.08V12.8208C105.08 12.2295 105.209 11.7167 105.466 11.2823C105.722 10.848 106.082 10.5158 106.544 10.2858C107.006 10.0559 107.534 9.94092 108.129 9.94092C109.053 9.94092 109.79 10.2165 110.34 10.7677C110.891 11.3188 111.166 12.1127 111.166 13.1493V14.6823C111.166 15.7189 110.891 16.5128 110.34 17.064ZM122.5 17.7484V16.3248H117.449C116.539 16.3248 115.824 16.219 115.303 16.0073C114.782 15.7956 114.41 15.4762 114.186 15.0491C113.963 14.6221 113.851 14.0655 113.851 13.3793V12.6237C113.851 12.193 113.953 11.8608 114.159 11.6272C114.364 11.3936 114.617 11.2768 114.918 11.2768C115.226 11.2768 115.472 11.3863 115.655 11.6053C115.839 11.8243 115.931 12.1236 115.931 12.5032V14.3538H117.471V12.5142C117.471 12.1273 117.572 11.8243 117.774 11.6053C117.976 11.3863 118.223 11.2768 118.517 11.2768C118.825 11.2768 119.08 11.3882 119.281 11.6108C119.483 11.8335 119.584 12.1309 119.584 12.5032V14.3538H121.125V12.5142C121.125 12.1346 121.233 11.8335 121.449 11.6108C121.666 11.3882 121.924 11.2768 122.225 11.2768C122.526 11.2768 122.768 11.3918 122.951 11.6218C123.135 11.8517 123.226 12.1747 123.226 12.5908V14.5728H124.767V12.558C124.767 12.0616 124.666 11.6145 124.464 11.2166C124.263 10.8188 123.982 10.5067 123.623 10.2804C123.263 10.0541 122.852 9.94092 122.39 9.94092C121.965 9.94092 121.57 10.0395 121.207 10.2366C120.844 10.4337 120.56 10.7366 120.354 11.1454C120.2 10.7512 119.947 10.4519 119.595 10.2475C119.243 10.0431 118.902 9.94092 118.572 9.94092C118.212 9.94092 117.856 10.0431 117.504 10.2475C117.152 10.4519 116.884 10.7512 116.701 11.1454C116.532 10.7512 116.259 10.4519 115.881 10.2475C115.503 10.0431 115.127 9.94092 114.753 9.94092C114.291 9.94092 113.873 10.0541 113.499 10.2804C113.124 10.5067 112.829 10.8188 112.613 11.2166C112.396 11.6145 112.288 12.0616 112.288 12.558V13.5326C112.288 15.0875 112.769 16.1788 113.73 16.8066C114.691 17.4344 115.857 17.7484 117.229 17.7484H122.5ZM127.661 12.7113V17.7484H126.065V12.558C126.065 12.0616 126.177 11.6145 126.401 11.2166C126.625 10.8188 126.931 10.5067 127.32 10.2804C127.709 10.0541 128.142 9.94092 128.618 9.94092C129.022 9.94092 129.414 10.0431 129.796 10.2475C130.177 10.4519 130.452 10.7512 130.621 11.1454C130.827 10.7366 131.113 10.4337 131.48 10.2366C131.846 10.0395 132.257 9.94092 132.712 9.94092C133.196 9.94092 133.625 10.0541 134 10.2804C134.374 10.5067 134.663 10.8169 134.869 11.2111C135.074 11.6053 135.177 12.0543 135.177 12.558V17.7484H133.581V12.6784C133.581 12.255 133.491 11.9302 133.312 11.7039C133.132 11.4776 132.877 11.3644 132.547 11.3644C132.224 11.3644 131.955 11.4739 131.738 11.6929C131.522 11.9119 131.414 12.2149 131.414 12.6018V15.7773H129.829V12.5908C129.829 12.2039 129.737 11.9028 129.554 11.6875C129.37 11.4721 129.114 11.3644 128.784 11.3644C128.461 11.3644 128.193 11.4794 127.98 11.7094C127.767 11.9393 127.661 12.2733 127.661 12.7113ZM139.843 17.8907C140.452 17.8907 140.996 17.7776 141.477 17.5512C141.957 17.3249 142.332 17.0129 142.599 16.615C142.867 16.2172 143.001 15.7627 143.001 15.2517C143.001 14.8137 142.933 14.4578 142.797 14.1841C142.662 13.9103 142.476 13.6421 142.242 13.3793C142.102 13.2114 142.003 13.0818 141.945 12.9905C141.886 12.8993 141.853 12.7989 141.846 12.6894H140.305C140.305 12.9741 140.354 13.2095 140.453 13.3957C140.553 13.5818 140.701 13.7881 140.899 14.0144C141.068 14.2261 141.194 14.4067 141.279 14.5564C141.363 14.706 141.405 14.8867 141.405 15.0984C141.405 15.5291 141.264 15.8649 140.982 16.1058C140.699 16.3467 140.32 16.4672 139.843 16.4672C139.351 16.4672 138.97 16.3139 138.698 16.0073C138.427 15.7007 138.291 15.2335 138.291 14.6057V10.0833H136.751V14.6823C136.751 15.7189 137.029 16.5128 137.587 17.064C138.144 17.6151 138.896 17.8907 139.843 17.8907ZM151.469 17.5512C150.996 17.7776 150.451 17.8907 149.835 17.8907C149.218 17.8907 148.677 17.7776 148.211 17.5512C147.746 17.3249 147.384 17.011 147.128 16.6095C146.871 16.208 146.742 15.7518 146.742 15.2408C146.742 14.5473 146.968 13.9651 147.419 13.4942C147.87 13.0234 148.481 12.7368 149.251 12.6346V12.0871C149.251 11.9192 149.217 11.7787 149.147 11.6656C149.077 11.5524 148.973 11.4265 148.833 11.2878C148.657 11.1126 148.521 10.9392 148.426 10.7677C148.331 10.5961 148.283 10.368 148.283 10.0833H149.824C149.824 10.2293 149.858 10.3534 149.928 10.4556C149.998 10.5578 150.106 10.6819 150.253 10.8279C150.429 10.9958 150.563 11.1527 150.654 11.2987C150.746 11.4447 150.792 11.6309 150.792 11.8572V12.7113C151.46 12.8646 151.986 13.1676 152.371 13.6202C152.756 14.0728 152.949 14.613 152.949 15.2408C152.949 15.7518 152.82 16.208 152.564 16.6095C152.307 17.011 151.942 17.3249 151.469 17.5512ZM149.835 16.5548C149.387 16.5548 149.026 16.4289 148.751 16.177C148.476 15.9252 148.338 15.5948 148.338 15.186C148.338 14.7845 148.476 14.4578 148.751 14.206C149.026 13.9541 149.387 13.8282 149.835 13.8282C150.289 13.8282 150.656 13.9541 150.935 14.206C151.214 14.4578 151.353 14.7845 151.353 15.186C151.353 15.5948 151.214 15.9252 150.935 16.177C150.656 16.4289 150.289 16.5548 149.835 16.5548ZM158.649 17.5403C158.172 17.7739 157.626 17.8907 157.009 17.8907C156.063 17.8907 155.309 17.6151 154.748 17.064C154.187 16.5128 153.906 15.7189 153.906 14.6823V14.1896H155.447V14.6057C155.447 15.2335 155.584 15.7007 155.859 16.0073C156.135 16.3139 156.518 16.4672 157.009 16.4672C157.486 16.4672 157.864 16.334 158.143 16.0675C158.422 15.8011 158.561 15.4342 158.561 14.967C158.561 14.5947 158.467 14.2662 158.28 13.9815C158.093 13.6968 157.813 13.3647 157.439 12.9851C157.152 12.693 156.923 12.443 156.751 12.235C156.578 12.0269 156.433 11.7824 156.316 11.5013C156.199 11.2203 156.14 10.9045 156.14 10.5541V10.0833H157.681V10.4446C157.681 10.6782 157.725 10.8881 157.813 11.0743C157.901 11.2604 158.013 11.4265 158.148 11.5725C158.284 11.7185 158.469 11.901 158.704 12.12C159.012 12.3974 159.263 12.6492 159.458 12.8755C159.652 13.1019 159.817 13.3847 159.953 13.7242C160.089 14.0636 160.157 14.467 160.157 14.9342C160.157 15.5474 160.025 16.0766 159.76 16.5219C159.496 16.9672 159.126 17.3067 158.649 17.5403ZM164.338 17.8907C164.932 17.8907 165.464 17.7776 165.934 17.5512C166.403 17.3249 166.77 17.011 167.034 16.6095C167.298 16.208 167.43 15.7518 167.43 15.2408C167.43 14.7225 167.306 14.2626 167.056 13.8611C166.807 13.4596 166.473 13.1493 166.055 12.9303C165.637 12.7113 165.186 12.6018 164.701 12.6018C163.799 12.6018 163.172 12.8828 162.82 13.445V12.4375C162.82 12.0944 162.948 11.8335 163.205 11.6546C163.462 11.4758 163.777 11.3863 164.151 11.3863H166.935V10.0833H163.92C163.465 10.0833 163.036 10.1709 162.633 10.3461C162.229 10.5213 161.903 10.775 161.653 11.1071C161.404 11.4393 161.279 11.8353 161.279 12.2952V15.2298C161.279 15.7408 161.406 16.1989 161.659 16.6041C161.912 17.0092 162.271 17.3249 162.737 17.5512C163.203 17.7776 163.737 17.8907 164.338 17.8907ZM163.238 16.177C163.517 16.4289 163.883 16.5548 164.338 16.5548C164.786 16.5548 165.147 16.4289 165.422 16.177C165.697 15.9252 165.835 15.5948 165.835 15.186C165.835 14.7918 165.695 14.4706 165.417 14.2224C165.138 13.9742 164.778 13.8501 164.338 13.8501C163.883 13.8501 163.517 13.9742 163.238 14.2224C162.959 14.4706 162.82 14.7918 162.82 15.186C162.82 15.5948 162.959 15.9252 163.238 16.177ZM171.535 17.8907C172.151 17.8907 172.701 17.7812 173.186 17.5622C173.67 17.3432 174.048 17.0457 174.319 16.6698C174.59 16.2938 174.726 15.8722 174.726 15.405C174.726 14.31 174.209 13.6238 173.175 13.3464C173.6 13.2223 173.928 13.0179 174.159 12.7332C174.391 12.4485 174.506 12.1017 174.506 11.6929V10.0833H172.966V11.5177C172.966 11.9265 172.863 12.224 172.657 12.4102C172.452 12.5963 172.118 12.6894 171.656 12.6894H170.853V14.0691H171.513C172.591 14.0691 173.131 14.456 173.131 15.2298C173.131 15.6459 172.991 15.958 172.712 16.1661C172.434 16.3741 172.037 16.4781 171.524 16.4781C171.025 16.4781 170.631 16.3394 170.341 16.062C170.051 15.7846 169.906 15.4233 169.906 14.978V14.7371H168.366V15.0546C168.366 15.6313 168.496 16.1332 168.756 16.5603C169.017 16.9873 169.385 17.3158 169.862 17.5458C170.339 17.7757 170.897 17.8907 171.535 17.8907ZM177.565 13.1274V17.7484H176.025V13.0946C176.025 12.4229 176.151 11.8499 176.404 11.3754C176.657 10.9009 177.008 10.5432 177.455 10.3023C177.903 10.0614 178.42 9.94092 179.007 9.94092C179.594 9.94092 180.113 10.0614 180.564 10.3023C181.015 10.5432 181.367 10.9009 181.62 11.3754C181.873 11.8499 182 12.4229 182 13.0946V17.7484H180.459V13.1274C180.459 12.5507 180.327 12.1127 180.063 11.8134C179.799 11.5141 179.447 11.3644 179.007 11.3644C178.567 11.3644 178.216 11.5123 177.956 11.8079C177.696 12.1036 177.565 12.5434 177.565 13.1274ZM49.1218 27.9093C49.7194 27.9093 50.1757 27.792 50.4908 27.5574C50.806 27.3228 50.9635 26.9732 50.9635 26.5087C50.9635 26.2578 50.8865 26.0325 50.7324 25.8327C50.5784 25.633 50.3846 25.4936 50.1512 25.4146C50.3566 25.3403 50.5259 25.2091 50.6589 25.0209C50.792 24.8328 50.8585 24.6203 50.8585 24.3833C50.8585 23.9281 50.6963 23.589 50.3718 23.366C50.0473 23.143 49.591 23.0315 49.0028 23.0315H47V27.9093H49.1218ZM47.9734 25.0244H48.9748C49.2549 25.0244 49.4696 24.9838 49.619 24.9025C49.7684 24.8212 49.8431 24.6714 49.8431 24.453C49.8431 24.2393 49.7672 24.0918 49.6155 24.0105C49.4638 23.9292 49.2502 23.8886 48.9748 23.8886H47.9734V25.0244ZM49.0728 27.0522H47.9734V25.8815H49.0728C49.3622 25.8815 49.5805 25.9245 49.7276 26.0104C49.8746 26.0964 49.9481 26.2462 49.9481 26.4599C49.9481 26.6829 49.8746 26.8373 49.7276 26.9233C49.5805 27.0092 49.3622 27.0522 49.0728 27.0522ZM52.7212 26.7735L52.294 27.9093H51.2786L53.1834 23.0315H54.3738L56.2856 27.9093H55.2422L54.815 26.7735H52.7212ZM54.4789 25.8746H53.0573L53.7716 23.9931L54.4789 25.8746ZM57.8962 24.6481L57.8892 27.9093H56.9158V23.0315H57.8262L60.3191 26.2857V23.0315H61.2995V27.9093H60.3822L57.8962 24.6481ZM63.3863 27.9093V25.9024H63.8415L65.5852 27.9093H66.8526L64.6398 25.4077L66.6986 23.0315H65.4731L63.8485 25.0035H63.3863V23.0315H62.4129V27.9093H63.3863ZM72.7069 27.6724C72.3148 27.8907 71.8712 27.9999 71.3764 27.9999C70.8815 27.9999 70.438 27.8907 70.0459 27.6724C69.6537 27.454 69.3479 27.1521 69.1285 26.7665C68.9091 26.3809 68.7994 25.9489 68.7994 25.4704C68.7994 24.9919 68.9091 24.5599 69.1285 24.1743C69.3479 23.7887 69.6537 23.4868 70.0459 23.2684C70.438 23.0501 70.8815 22.9409 71.3764 22.9409C71.8712 22.9409 72.3148 23.0501 72.7069 23.2684C73.0991 23.4868 73.4048 23.7887 73.6243 24.1743C73.8437 24.5599 73.9534 24.9919 73.9534 25.4704C73.9534 25.9489 73.8437 26.3809 73.6243 26.7665C73.4048 27.1521 73.0991 27.454 72.7069 27.6724ZM71.3764 27.0661C71.0776 27.0661 70.8103 26.9988 70.5746 26.864C70.3388 26.7293 70.1544 26.5412 70.0214 26.2996C69.8883 26.0581 69.8218 25.7816 69.8218 25.4704C69.8218 25.1591 69.8883 24.8827 70.0214 24.6412C70.1544 24.3996 70.3388 24.2115 70.5746 24.0767C70.8103 23.942 71.0776 23.8747 71.3764 23.8747C71.6752 23.8747 71.9424 23.942 72.1782 24.0767C72.414 24.2115 72.5984 24.3996 72.7314 24.6412C72.8645 24.8827 72.931 25.1591 72.931 25.4704C72.931 25.7816 72.8645 26.0581 72.7314 26.2996C72.5984 26.5412 72.414 26.7293 72.1782 26.864C71.9424 26.9988 71.6752 27.0661 71.3764 27.0661ZM75.8091 25.9303V27.9093H74.8357V23.0315H78.4351V23.9234H75.8091V25.0384H78.267V25.9303H75.8091ZM83.386 27.9999C83.8435 27.9999 84.2543 27.893 84.6185 27.6793C84.9826 27.4656 85.2674 27.1672 85.4728 26.7839C85.6782 26.4007 85.7809 25.9651 85.7809 25.4774C85.7809 25.3566 85.7763 25.2637 85.7669 25.1986H83.5121V26.0139H84.7585C84.6932 26.3623 84.5438 26.6283 84.3104 26.8118C84.077 26.9953 83.7618 27.087 83.365 27.087C83.0802 27.087 82.8223 27.0208 82.5912 26.8884C82.3601 26.756 82.1769 26.5679 82.0415 26.324C81.9061 26.0801 81.8384 25.7956 81.8384 25.4704C81.8384 25.1591 81.9049 24.8804 82.038 24.6342C82.171 24.388 82.3555 24.1975 82.5912 24.0628C82.827 23.9281 83.0919 23.8607 83.386 23.8607C83.6288 23.8607 83.8505 23.906 84.0513 23.9966C84.252 24.0872 84.4247 24.2138 84.5695 24.3764L85.2697 23.6865C85.0503 23.4496 84.7819 23.2661 84.4644 23.136C84.147 23.006 83.7968 22.9409 83.414 22.9409C82.9192 22.9409 82.4745 23.0489 82.08 23.2649C81.6855 23.481 81.3774 23.7806 81.1557 24.1638C80.9339 24.5471 80.823 24.9826 80.823 25.4704C80.823 25.9768 80.9397 26.4216 81.1732 26.8048C81.4066 27.1881 81.7194 27.4831 82.1115 27.6898C82.5037 27.8965 82.9285 27.9999 83.386 27.9999ZM90.3257 27.0173V27.9093H86.6633V23.0315H90.2977V23.9234H87.6367V25.0035H90.1716V25.8955H87.6367V27.0173H90.3257ZM93.631 27.9999C94.1258 27.9999 94.5693 27.8907 94.9615 27.6724C95.3536 27.454 95.6594 27.1521 95.8788 26.7665C96.0982 26.3809 96.208 25.9489 96.208 25.4704C96.208 24.9919 96.0982 24.5599 95.8788 24.1743C95.6594 23.7887 95.3536 23.4868 94.9615 23.2684C94.5693 23.0501 94.1258 22.9409 93.631 22.9409C93.1361 22.9409 92.6926 23.0501 92.3004 23.2684C91.9083 23.4868 91.6025 23.7887 91.3831 24.1743C91.1637 24.5599 91.054 24.9919 91.054 25.4704C91.054 25.9489 91.1637 26.3809 91.3831 26.7665C91.6025 27.1521 91.9083 27.454 92.3004 27.6724C92.6926 27.8907 93.1361 27.9999 93.631 27.9999ZM92.8292 26.864C93.0649 26.9988 93.3322 27.0661 93.631 27.0661C93.9297 27.0661 94.197 26.9988 94.4328 26.864C94.6685 26.7293 94.8529 26.5412 94.986 26.2996C95.119 26.0581 95.1856 25.7816 95.1856 25.4704C95.1856 25.1591 95.119 24.8827 94.986 24.6412C94.8529 24.3996 94.6685 24.2115 94.4328 24.0767C94.197 23.942 93.9297 23.8747 93.631 23.8747C93.3322 23.8747 93.0649 23.942 92.8292 24.0767C92.5934 24.2115 92.409 24.3996 92.2759 24.6412C92.1429 24.8827 92.0764 25.1591 92.0764 25.4704C92.0764 25.7816 92.1429 26.0581 92.2759 26.2996C92.409 26.5412 92.5934 26.7293 92.8292 26.864ZM98.0637 27.9093V25.9651H98.3508L99.7793 27.9093H100.963L99.4572 25.9512H99.5062C99.9591 25.9094 100.314 25.7596 100.571 25.5018C100.827 25.2439 100.956 24.9153 100.956 24.5157C100.956 24.0465 100.802 23.6819 100.494 23.4217C100.185 23.1616 99.742 23.0315 99.1631 23.0315H97.0903V27.9093H98.0637ZM98.0637 25.122H99.1421C99.6836 25.122 99.9544 24.9199 99.9544 24.5157C99.9544 24.1209 99.6836 23.9234 99.1421 23.9234H98.0637V25.122ZM104.163 27.9999C104.621 27.9999 105.031 27.893 105.395 27.6793C105.76 27.4656 106.044 27.1672 106.25 26.7839C106.455 26.4007 106.558 25.9651 106.558 25.4774C106.558 25.3566 106.553 25.2637 106.544 25.1986H104.289V26.0139H105.536C105.47 26.3623 105.321 26.6283 105.087 26.8118C104.854 26.9953 104.539 27.087 104.142 27.087C103.857 27.087 103.599 27.0208 103.368 26.8884C103.137 26.756 102.954 26.5679 102.819 26.324C102.683 26.0801 102.615 25.7956 102.615 25.4704C102.615 25.1591 102.682 24.8804 102.815 24.6342C102.948 24.388 103.132 24.1975 103.368 24.0628C103.604 23.9281 103.869 23.8607 104.163 23.8607C104.406 23.8607 104.628 23.906 104.828 23.9966C105.029 24.0872 105.202 24.2138 105.346 24.3764L106.047 23.6865C105.827 23.4496 105.559 23.2661 105.241 23.136C104.924 23.006 104.574 22.9409 104.191 22.9409C103.696 22.9409 103.252 23.0489 102.857 23.2649C102.463 23.481 102.154 23.7806 101.933 24.1638C101.711 24.5471 101.6 24.9826 101.6 25.4704C101.6 25.9768 101.717 26.4216 101.95 26.8048C102.184 27.1881 102.496 27.4831 102.889 27.6898C103.281 27.8965 103.706 27.9999 104.163 27.9999ZM107.44 23.0315H108.414V27.9093H107.44V23.0315ZM110.066 27.9093L110.493 26.7735H112.587L113.014 27.9093H114.058L112.146 23.0315H110.956L109.051 27.9093H110.066ZM110.83 25.8746H112.251L111.544 23.9931L110.83 25.8746Z" fill="#6E6F71"/>
<g clip-path="url(#clip0_5852_83540)">
<path d="M29.4778 0.00634766H12.1983C9.49997 0.00963784 6.91317 1.08344 5.00573 2.99205C3.09828 4.90066 2.02606 7.48811 2.02441 10.1865V27.4598C2.02606 30.1581 3.09828 32.7456 5.00573 34.6542C6.91317 36.5628 9.49997 37.6366 12.1983 37.6399H29.4778C32.1762 37.6366 34.763 36.5628 36.6704 34.6542C38.5779 32.7456 39.6501 30.1581 39.6517 27.4598V10.1803C39.6485 7.48298 38.5755 4.89711 36.6682 2.98985C34.761 1.08258 32.1751 0.00963502 29.4778 0.00634766V0.00634766ZM36.3101 27.4598C36.3085 29.2742 35.5891 31.0143 34.3091 32.3001C33.029 33.586 31.2922 34.3133 29.4778 34.3231H12.1983C10.86 34.3205 9.5516 33.9271 8.43383 33.1911C7.31606 32.4551 6.43761 31.4086 5.9064 30.1803L6.52752 29.6523L7.76976 26.0747L5.34739 21.9691V10.1678C5.35718 8.35882 6.08016 6.62668 7.35935 5.34749C8.63853 4.0683 10.3707 3.34533 12.1797 3.33554H29.4592C31.2682 3.34533 33.0004 4.0683 34.2795 5.34749C35.5587 6.62668 36.2817 8.35882 36.2915 10.1678L36.3101 27.4598Z" fill="#E6E7E8"/>
<path d="M32.4095 26.7951C32.8114 26.9207 33.2307 26.9815 33.6517 26.9753C35.5151 26.9753 36.3536 26.2423 36.3536 25.3728C36.3536 24.3541 34.9747 24.3541 34.8319 23.4597C34.6517 22.3417 34.7698 17.3852 36.6952 14.6399L37.9809 15.2237C38.2304 15.3519 38.5079 15.4159 38.7884 15.41C38.956 15.3982 39.1196 15.3525 39.269 15.2756C39.4185 15.1987 39.5508 15.0923 39.658 14.9628C40.934 13.5362 42.062 11.9837 43.0244 10.3293C43.1797 10.0001 40.4716 6.60258 38.9561 5.36035C38.1988 4.75506 37.3075 4.34002 36.3569 4.14997C35.4063 3.95993 34.4239 4.0004 33.4922 4.26802C32.5604 4.53563 31.7063 5.02259 31.0013 5.68813C30.2964 6.35366 29.7612 7.17839 29.4406 8.09327C26.8178 9.91867 23.911 11.2975 20.8381 12.174C16.6952 13.2672 12.4033 12.2423 9.48404 12.3914C5.75734 12.584 3.50268 15.3293 3.58963 18.5156C3.67659 21.702 5.9064 24.7268 5.9064 27.7268C5.92046 28.1676 5.8468 28.6068 5.68968 29.019C5.53256 29.4311 5.29512 29.8078 4.99115 30.1274C4.68718 30.447 4.32275 30.703 3.91902 30.8805C3.51528 31.058 3.08029 31.1536 2.63932 31.1616C1.04305 31.1616 0.937458 30.5094 0.446774 30.5094C0.335257 30.511 0.228759 30.556 0.149896 30.6349C0.0710336 30.7138 0.0260189 30.8203 0.0244141 30.9318C0.0244141 31.7392 1.99957 32.5032 3.13 32.5032C3.95824 32.5285 4.77966 32.3463 5.5195 31.9731C6.25933 31.5999 6.8941 31.0477 7.36603 30.3666C7.36603 30.3666 8.13 32.5777 11.0927 32.5777C13.4468 32.5777 14.4654 31.4535 14.4654 30.5156C14.4654 29.7516 13.9996 29.4287 13.6704 28.9815C13.3819 28.5673 13.224 28.0762 13.217 27.5715C13.641 27.6284 14.0686 27.6553 14.4965 27.6523C16.2045 27.6523 16.7263 26.9566 16.7263 26.2796C16.7263 25.3976 15.7014 25.4597 15.7014 24.0249C15.7014 22.9318 16.3226 22.5777 16.8381 22.5777C17.3536 22.5777 19.5958 22.7827 22.2356 23.056C23.1176 23.143 25.3412 23.9939 25.3412 27.4038V28.6461C25.3412 30.7268 26.1735 33.2982 29.8567 33.2982C32.3412 33.2982 33.7573 31.9069 33.7573 30.9007C33.7573 30.2423 33.1797 29.9504 32.9002 29.5591C32.4039 28.7192 32.2525 27.7195 32.4778 26.7703" fill="#FF600A"/>
<path d="M38.4973 11.8818C38.382 11.8818 38.2714 11.9276 38.1898 12.0092C38.1083 12.0907 38.0625 12.2013 38.0625 12.3166C38.0625 12.4319 38.1083 12.5425 38.1898 12.6241C38.2714 12.7056 38.382 12.7514 38.4973 12.7514C38.6126 12.7514 38.7232 12.7056 38.8047 12.6241C38.8863 12.5425 38.9321 12.4319 38.9321 12.3166C38.9321 12.2013 38.8863 12.0907 38.8047 12.0092C38.7232 11.9276 38.6126 11.8818 38.4973 11.8818" fill="white"/>
<path d="M39.9874 10.6148C39.9097 10.6136 39.8335 10.6355 39.7683 10.6777C39.7031 10.7199 39.652 10.7806 39.6214 10.852C39.5909 10.9234 39.5822 11.0022 39.5966 11.0786C39.611 11.1549 39.6478 11.2252 39.7023 11.2805C39.7567 11.3359 39.8264 11.3738 39.9025 11.3894C39.9786 11.405 40.0576 11.3976 40.1294 11.3682C40.2013 11.3387 40.2628 11.2886 40.306 11.2241C40.3493 11.1596 40.3724 11.0838 40.3725 11.0061C40.3725 10.9034 40.3321 10.8048 40.26 10.7316C40.188 10.6584 40.0901 10.6164 39.9874 10.6148" fill="white"/>
<path d="M40.696 9.15527C40.6321 9.15527 40.5697 9.17422 40.5166 9.20971C40.4635 9.2452 40.4221 9.29564 40.3976 9.35466C40.3732 9.41368 40.3668 9.47861 40.3793 9.54126C40.3917 9.60392 40.4225 9.66147 40.4676 9.70664C40.5128 9.75181 40.5704 9.78257 40.633 9.79503C40.6957 9.8075 40.7606 9.8011 40.8196 9.77666C40.8786 9.75221 40.9291 9.71081 40.9646 9.65769C41.0001 9.60458 41.019 9.54214 41.019 9.47826C41.019 9.3926 40.985 9.31045 40.9244 9.24988C40.8638 9.18931 40.7817 9.15527 40.696 9.15527" fill="white"/>
<path d="M28.267 11.1863C28.3603 11.1863 28.4516 11.1586 28.5292 11.1067C28.6069 11.0549 28.6674 10.9811 28.7031 10.8949C28.7388 10.8086 28.7482 10.7137 28.7299 10.6221C28.7117 10.5306 28.6668 10.4465 28.6008 10.3805C28.5347 10.3144 28.4506 10.2695 28.3591 10.2513C28.2675 10.233 28.1726 10.2424 28.0863 10.2781C28.0001 10.3139 27.9263 10.3744 27.8745 10.452C27.8226 10.5296 27.7949 10.6209 27.7949 10.7142C27.7949 10.8394 27.8447 10.9595 27.9332 11.048C28.0217 11.1366 28.1418 11.1863 28.267 11.1863" fill="white"/>
<path d="M30.0684 22.5591C29.9533 22.5723 29.8471 22.6275 29.7701 22.7139C29.693 22.8004 29.6504 22.9122 29.6504 23.028C29.6504 23.1439 29.693 23.2557 29.7701 23.3421C29.8471 23.4286 29.9533 23.4837 30.0684 23.497C30.1834 23.4837 30.2896 23.4286 30.3667 23.3421C30.4438 23.2557 30.4864 23.1439 30.4864 23.028C30.4864 22.9122 30.4438 22.8004 30.3667 22.7139C30.2896 22.6275 30.1834 22.5723 30.0684 22.5591" fill="white"/>
<path d="M32.8636 23.0313C32.802 23.0305 32.7407 23.0419 32.6835 23.0649C32.6262 23.088 32.5741 23.1222 32.5302 23.1655C32.4863 23.2089 32.4514 23.2605 32.4276 23.3174C32.4038 23.3743 32.3916 23.4354 32.3916 23.4971C32.3916 23.6223 32.4413 23.7424 32.5299 23.8309C32.6184 23.9194 32.7385 23.9692 32.8636 23.9692C32.9888 23.9692 33.1089 23.9194 33.1974 23.8309C33.286 23.7424 33.3357 23.6223 33.3357 23.4971C33.3357 23.4354 33.3235 23.3743 33.2997 23.3174C33.2759 23.2605 33.241 23.2089 33.1971 23.1655C33.1532 23.1222 33.1011 23.088 33.0438 23.0649C32.9866 23.0419 32.9253 23.0305 32.8636 23.0313" fill="white"/>
<path d="M30.46 18.2983C30.3678 18.2983 30.2778 18.3257 30.2012 18.3769C30.1246 18.428 30.0649 18.5008 30.0296 18.5859C29.9943 18.671 29.9851 18.7647 30.0031 18.8551C30.0211 18.9454 30.0654 19.0284 30.1306 19.0936C30.1957 19.1587 30.2787 19.2031 30.3691 19.2211C30.4595 19.239 30.5531 19.2298 30.6382 19.1946C30.7234 19.1593 30.7961 19.0996 30.8473 19.023C30.8985 18.9464 30.9258 18.8563 30.9258 18.7642C30.9258 18.6406 30.8767 18.5221 30.7894 18.4348C30.702 18.3474 30.5835 18.2983 30.46 18.2983Z" fill="white"/>
<path d="M32.0557 15.1179C32.1496 15.1191 32.2417 15.0923 32.3203 15.0409C32.3989 14.9895 32.4603 14.9159 32.4968 14.8294C32.5333 14.7429 32.5432 14.6474 32.5252 14.5553C32.5072 14.4632 32.4621 14.3785 32.3957 14.3121C32.3293 14.2457 32.2446 14.2006 32.1525 14.1826C32.0603 14.1646 31.9649 14.1745 31.8784 14.2109C31.7919 14.2474 31.7182 14.3089 31.6668 14.3875C31.6154 14.4661 31.5887 14.5582 31.5899 14.6521C31.5899 14.7756 31.639 14.8941 31.7263 14.9815C31.8137 15.0688 31.9322 15.1179 32.0557 15.1179" fill="white"/>
<path d="M24.7393 13.2238C24.8329 13.2251 24.9248 13.1984 25.0032 13.1473C25.0816 13.0962 25.1431 13.0229 25.1798 12.9368C25.2165 12.8506 25.2267 12.7555 25.2092 12.6636C25.1917 12.5716 25.1472 12.4869 25.0815 12.4203C25.0157 12.3536 24.9316 12.308 24.8399 12.2893C24.7481 12.2706 24.6529 12.2796 24.5663 12.3151C24.4797 12.3506 24.4056 12.4111 24.3534 12.4889C24.3013 12.5667 24.2734 12.6582 24.2734 12.7518C24.2734 12.8759 24.3223 12.9951 24.4095 13.0834C24.4967 13.1718 24.6152 13.2222 24.7393 13.2238Z" fill="white"/>
<path d="M27.3669 21.5962C27.2733 21.595 27.1814 21.6216 27.103 21.6728C27.0246 21.7239 26.9631 21.7972 26.9264 21.8833C26.8897 21.9694 26.8795 22.0645 26.897 22.1565C26.9145 22.2485 26.959 22.3332 27.0247 22.3998C27.0905 22.4665 27.1746 22.512 27.2663 22.5308C27.3581 22.5495 27.4533 22.5405 27.5399 22.505C27.6265 22.4694 27.7006 22.4089 27.7528 22.3312C27.8049 22.2534 27.8328 22.1619 27.8328 22.0683C27.8328 21.9442 27.7839 21.825 27.6967 21.7367C27.6095 21.6483 27.491 21.5979 27.3669 21.5962Z" fill="white"/>
<path d="M26.0746 15.5339C26.1679 15.5339 26.2592 15.5063 26.3368 15.4544C26.4145 15.4025 26.475 15.3288 26.5107 15.2425C26.5464 15.1563 26.5558 15.0614 26.5376 14.9698C26.5193 14.8782 26.4744 14.7941 26.4084 14.7281C26.3424 14.6621 26.2582 14.6171 26.1667 14.5989C26.0751 14.5807 25.9802 14.5901 25.8939 14.6258C25.8077 14.6615 25.734 14.722 25.6821 14.7996C25.6302 14.8773 25.6025 14.9685 25.6025 15.0619C25.6025 15.1871 25.6523 15.3072 25.7408 15.3957C25.8293 15.4842 25.9494 15.5339 26.0746 15.5339" fill="white"/>
<path d="M23.1113 18.2051C23.0192 18.2051 22.9291 18.2324 22.8525 18.2836C22.7759 18.3348 22.7162 18.4075 22.681 18.4926C22.6457 18.5778 22.6365 18.6714 22.6545 18.7618C22.6724 18.8522 22.7168 18.9352 22.782 19.0003C22.8471 19.0655 22.9301 19.1098 23.0205 19.1278C23.1108 19.1458 23.2045 19.1365 23.2896 19.1013C23.3747 19.066 23.4475 19.0063 23.4987 18.9297C23.5499 18.8531 23.5772 18.7631 23.5772 18.6709C23.5772 18.5474 23.5281 18.4289 23.4407 18.3415C23.3534 18.2542 23.2349 18.2051 23.1113 18.2051Z" fill="white"/>
<path d="M27.9376 17.7019C28.0314 17.7031 28.1235 17.6763 28.2021 17.6249C28.2807 17.5735 28.3422 17.4999 28.3787 17.4133C28.4152 17.3268 28.425 17.2314 28.407 17.1393C28.389 17.0471 28.3439 16.9625 28.2775 16.8961C28.2111 16.8297 28.1264 16.7846 28.0343 16.7666C27.9422 16.7486 27.8467 16.7584 27.7602 16.7949C27.6737 16.8314 27.6001 16.8929 27.5487 16.9715C27.4973 17.05 27.4705 17.1422 27.4717 17.236C27.4733 17.3591 27.5229 17.4766 27.6099 17.5637C27.697 17.6507 27.8145 17.7003 27.9376 17.7019" fill="white"/>
<path d="M20.5531 13.4971C20.4279 13.4971 20.3078 13.5468 20.2193 13.6353C20.1308 13.7239 20.0811 13.8439 20.0811 13.9691C20.0811 14.0625 20.1087 14.1537 20.1606 14.2314C20.2125 14.309 20.2862 14.3695 20.3725 14.4052C20.4587 14.441 20.5536 14.4503 20.6452 14.4321C20.7368 14.4139 20.8209 14.3689 20.8869 14.3029C20.9529 14.2369 20.9979 14.1528 21.0161 14.0612C21.0343 13.9696 21.0249 13.8747 20.9892 13.7885C20.9535 13.7022 20.893 13.6285 20.8154 13.5766C20.7377 13.5248 20.6465 13.4971 20.5531 13.4971Z" fill="white"/>
<path d="M21.571 15.9317C21.4774 15.9304 21.3855 15.9571 21.3071 16.0082C21.2287 16.0593 21.1672 16.1326 21.1305 16.2187C21.0938 16.3049 21.0836 16.4 21.1011 16.492C21.1186 16.5839 21.1631 16.6686 21.2288 16.7353C21.2946 16.8019 21.3787 16.8475 21.4704 16.8662C21.5622 16.8849 21.6574 16.876 21.744 16.8404C21.8306 16.8049 21.9047 16.7444 21.9569 16.6666C22.009 16.5889 22.0369 16.4974 22.0369 16.4037C22.0369 16.2796 21.988 16.1605 21.9008 16.0721C21.8136 15.9838 21.6951 15.9333 21.571 15.9317" fill="white"/>
<path d="M25.0062 20.0186C24.881 20.0186 24.761 20.0683 24.6724 20.1568C24.5839 20.2453 24.5342 20.3654 24.5342 20.4906C24.5342 20.6158 24.5839 20.7359 24.6724 20.8244C24.761 20.9129 24.881 20.9627 25.0062 20.9627C25.1314 20.9627 25.2515 20.9129 25.34 20.8244C25.4285 20.7359 25.4783 20.6158 25.4783 20.4906C25.4783 20.3654 25.4285 20.2453 25.34 20.1568C25.2515 20.0683 25.1314 20.0186 25.0062 20.0186Z" fill="white"/>
<path d="M29.8011 13.3852C29.893 13.384 29.9825 13.3557 30.0582 13.3037C30.134 13.2518 30.1928 13.1786 30.2271 13.0934C30.2614 13.0082 30.2697 12.9147 30.2511 12.8248C30.2324 12.7348 30.1875 12.6524 30.1221 12.5879C30.0568 12.5234 29.9737 12.4796 29.8836 12.4621C29.7934 12.4446 29.7 12.4542 29.6153 12.4897C29.5305 12.5251 29.4581 12.5848 29.4072 12.6613C29.3563 12.7377 29.3291 12.8275 29.3291 12.9194C29.3307 13.0435 29.3812 13.162 29.4695 13.2492C29.5579 13.3364 29.677 13.3853 29.8011 13.3852" fill="white"/>
<path d="M33.2731 19.1924C33.1793 19.1912 33.0872 19.218 33.0086 19.2694C32.93 19.3208 32.8685 19.3944 32.832 19.4809C32.7956 19.5674 32.7857 19.6629 32.8037 19.755C32.8217 19.8472 32.8668 19.9318 32.9332 19.9982C32.9996 20.0646 33.0843 20.1097 33.1764 20.1277C33.2685 20.1457 33.364 20.1359 33.4505 20.0994C33.537 20.0629 33.6106 20.0014 33.662 19.9228C33.7134 19.8443 33.7402 19.7521 33.739 19.6583C33.7374 19.5352 33.6878 19.4177 33.6008 19.3306C33.5137 19.2436 33.3962 19.194 33.2731 19.1924" fill="white"/>
<path d="M34.4476 15.3667C34.354 15.3667 34.2625 15.3946 34.1847 15.4467C34.107 15.4989 34.0465 15.573 34.0109 15.6596C33.9754 15.7462 33.9664 15.8414 33.9851 15.9332C34.0038 16.0249 34.0494 16.109 34.1161 16.1747C34.1827 16.2405 34.2674 16.285 34.3594 16.3025C34.4513 16.32 34.5464 16.3097 34.6326 16.2731C34.7187 16.2364 34.792 16.1749 34.8431 16.0965C34.8942 16.018 34.9209 15.9262 34.9196 15.8325C34.918 15.7084 34.8676 15.5899 34.7792 15.5028C34.6909 15.4156 34.5717 15.3667 34.4476 15.3667Z" fill="white"/>
<path d="M34.1492 11.5093C34.0555 11.5081 33.9637 11.5347 33.8852 11.5858C33.8068 11.6369 33.7453 11.7102 33.7086 11.7964C33.672 11.8825 33.6617 11.9776 33.6792 12.0696C33.6967 12.1616 33.7412 12.2463 33.807 12.3129C33.8727 12.3795 33.9568 12.4251 34.0485 12.4438C34.1403 12.4626 34.2355 12.4536 34.3221 12.418C34.4088 12.3825 34.4828 12.322 34.535 12.2443C34.5871 12.1665 34.615 12.075 34.615 11.9814C34.615 11.8572 34.5661 11.7381 34.4789 11.6498C34.3918 11.5614 34.2733 11.511 34.1492 11.5093Z" fill="white"/>
<path d="M36.3724 12.23C36.2791 12.23 36.1878 12.2577 36.1102 12.3095C36.0325 12.3614 35.972 12.4351 35.9363 12.5214C35.9006 12.6076 35.8912 12.7026 35.9095 12.7941C35.9277 12.8857 35.9726 12.9698 36.0387 13.0358C36.1047 13.1018 36.1888 13.1468 36.2803 13.165C36.3719 13.1832 36.4668 13.1739 36.5531 13.1382C36.6393 13.1024 36.7131 13.0419 36.7649 12.9643C36.8168 12.8867 36.8445 12.7954 36.8445 12.702C36.8445 12.5768 36.7948 12.4568 36.7062 12.3682C36.6177 12.2797 36.4976 12.23 36.3724 12.23" fill="white"/>
<path d="M32.4782 10.0621C32.3843 10.0608 32.2922 10.0876 32.2137 10.139C32.1351 10.1904 32.0736 10.2641 32.0371 10.3506C32.0006 10.4371 31.9908 10.5325 32.0088 10.6246C32.0268 10.7168 32.0719 10.8015 32.1383 10.8678C32.2047 10.9342 32.2893 10.9793 32.3815 10.9973C32.4736 11.0154 32.569 11.0055 32.6555 10.969C32.7421 10.9325 32.8157 10.871 32.8671 10.7925C32.9185 10.7139 32.9453 10.6218 32.9441 10.5279C32.9425 10.4048 32.8929 10.2873 32.8058 10.2003C32.7188 10.1133 32.6013 10.0637 32.4782 10.0621" fill="white"/>
<path d="M31.5531 8.29199C31.4597 8.29199 31.3685 8.31968 31.2908 8.37155C31.2132 8.42342 31.1527 8.49714 31.117 8.5834C31.0813 8.66965 31.0719 8.76457 31.0901 8.85614C31.1083 8.94771 31.1533 9.03182 31.2193 9.09784C31.2853 9.16385 31.3694 9.20881 31.461 9.22702C31.5526 9.24524 31.6475 9.23589 31.7337 9.20016C31.82 9.16444 31.8937 9.10393 31.9456 9.0263C31.9975 8.94867 32.0252 8.85741 32.0252 8.76405C32.0252 8.63885 31.9754 8.51878 31.8869 8.43025C31.7984 8.34172 31.6783 8.29199 31.5531 8.29199" fill="white"/>
<path d="M33.5281 8.29203C33.4344 8.2908 33.3426 8.31744 33.2641 8.36855C33.1857 8.41967 33.1242 8.49296 33.0875 8.5791C33.0509 8.66524 33.0406 8.76034 33.0581 8.85231C33.0756 8.94429 33.1201 9.02897 33.1859 9.09561C33.2516 9.16225 33.3357 9.20784 33.4275 9.22656C33.5192 9.24529 33.6144 9.2363 33.701 9.20076C33.7877 9.16523 33.8617 9.10473 33.9139 9.02698C33.966 8.94922 33.9939 8.85771 33.9939 8.76409C33.9939 8.63996 33.945 8.52082 33.8578 8.43247C33.7707 8.34412 33.6522 8.29367 33.5281 8.29203" fill="white"/>
<path d="M31.2793 7.0124C31.2793 6.935 31.3022 6.85935 31.3452 6.795C31.3882 6.73065 31.4493 6.68049 31.5208 6.65088C31.5924 6.62126 31.671 6.61352 31.7469 6.62861C31.8228 6.64371 31.8926 6.68098 31.9473 6.7357C32.002 6.79043 32.0393 6.86015 32.0544 6.93605C32.0695 7.01196 32.0617 7.09064 32.0321 7.16214C32.0025 7.23364 31.9523 7.29476 31.888 7.33776C31.8236 7.38076 31.748 7.4037 31.6706 7.4037C31.5668 7.4037 31.4673 7.36248 31.3939 7.28909C31.3205 7.21571 31.2793 7.11618 31.2793 7.0124" fill="white"/>
<path d="M32.4414 5.59648C32.4414 5.53751 32.4589 5.47987 32.4917 5.43084C32.5244 5.38181 32.571 5.3436 32.6254 5.32103C32.6799 5.29847 32.7399 5.29257 32.7977 5.30407C32.8555 5.31557 32.9087 5.34397 32.9504 5.38566C32.9921 5.42736 33.0204 5.48048 33.0319 5.53831C33.0435 5.59615 33.0375 5.65609 33.015 5.71057C32.9924 5.76505 32.9542 5.81161 32.9052 5.84437C32.8561 5.87713 32.7985 5.89461 32.7395 5.89461C32.6605 5.89461 32.5846 5.86321 32.5287 5.8073C32.4728 5.75138 32.4414 5.67555 32.4414 5.59648" fill="white"/>
<path d="M33.9561 4.91314C33.9561 4.86128 33.9716 4.8106 34.0006 4.76758C34.0295 4.72456 34.0706 4.69114 34.1187 4.67159C34.1667 4.65204 34.2195 4.64725 34.2702 4.65783C34.321 4.66841 34.3674 4.69388 34.4037 4.73099C34.4399 4.76809 34.4642 4.81516 34.4736 4.86616C34.4829 4.91717 34.4769 4.9698 34.4562 5.01735C34.4355 5.0649 34.4011 5.10519 34.3574 5.1331C34.3137 5.161 34.2626 5.17525 34.2108 5.17401C34.1768 5.17402 34.1432 5.16723 34.1119 5.15404C34.0806 5.14086 34.0522 5.12154 34.0285 5.09724C34.0048 5.07293 33.9861 5.04411 33.9737 5.0125C33.9613 4.98088 33.9553 4.9471 33.9561 4.91314" fill="white"/>
<path d="M40.3975 8.14911C40.3975 8.10243 40.4113 8.05679 40.4372 8.01798C40.4632 7.97916 40.5 7.94892 40.5432 7.93105C40.5863 7.91319 40.6337 7.90851 40.6795 7.91762C40.7253 7.92673 40.7674 7.9492 40.8004 7.98221C40.8334 8.01522 40.8559 8.05727 40.865 8.10306C40.8741 8.14884 40.8694 8.1963 40.8515 8.23943C40.8337 8.28256 40.8034 8.31943 40.7646 8.34536C40.7258 8.3713 40.6802 8.38514 40.6335 8.38514C40.5709 8.38514 40.5109 8.36027 40.4666 8.31601C40.4223 8.27175 40.3975 8.21171 40.3975 8.14911" fill="white"/>
<path d="M40.0625 12.8384C40.0721 12.7769 40.1033 12.7209 40.1506 12.6804C40.1979 12.6399 40.258 12.6177 40.3203 12.6177C40.3825 12.6177 40.4427 12.6399 40.4899 12.6804C40.5372 12.7209 40.5685 12.7769 40.578 12.8384C40.5798 12.9072 40.5549 12.974 40.5087 13.0249C40.4624 13.0758 40.3982 13.1069 40.3296 13.1117C40.2623 13.1105 40.1978 13.0844 40.1485 13.0386C40.0992 12.9927 40.0686 12.9303 40.0625 12.8633" fill="white"/>
<path d="M40.7266 11.9319C40.7266 11.8644 40.7534 11.7996 40.8012 11.7518C40.8489 11.7041 40.9137 11.6772 40.9812 11.6772C41.0488 11.6772 41.1135 11.7041 41.1613 11.7518C41.2091 11.7996 41.2359 11.8644 41.2359 11.9319C41.2384 11.9655 41.2341 11.9994 41.2231 12.0313C41.2122 12.0632 41.1948 12.0925 41.1722 12.1175C41.1495 12.1425 41.122 12.1626 41.0913 12.1766C41.0606 12.1906 41.0274 12.1982 40.9936 12.199C40.9602 12.2007 40.9267 12.1957 40.8952 12.1844C40.8637 12.1732 40.8347 12.1558 40.8099 12.1333C40.785 12.1108 40.7649 12.0836 40.7506 12.0533C40.7363 12.023 40.7282 11.9902 40.7266 11.9568" fill="white"/>
<path d="M39.3598 13.7329C39.3581 13.6995 39.3631 13.666 39.3743 13.6345C39.3856 13.6029 39.403 13.5739 39.4255 13.5491C39.448 13.5243 39.4752 13.5042 39.5055 13.4899C39.5358 13.4756 39.5686 13.4674 39.602 13.4658C39.6696 13.4658 39.7344 13.4927 39.7821 13.5404C39.8299 13.5882 39.8567 13.6529 39.8567 13.7205C39.8567 13.788 39.8299 13.8528 39.7821 13.9006C39.7344 13.9483 39.6696 13.9751 39.602 13.9751C39.5686 13.9768 39.5351 13.9719 39.5036 13.9606C39.4721 13.9493 39.4431 13.9319 39.4182 13.9094C39.3934 13.8869 39.3733 13.8598 39.359 13.8295C39.3447 13.7992 39.3366 13.7664 39.335 13.7329" fill="white"/>
<path d="M38.5654 14.5716C38.5654 14.504 38.5923 14.4392 38.64 14.3915C38.6878 14.3437 38.7526 14.3169 38.8201 14.3169C38.8876 14.3169 38.9524 14.3437 39.0002 14.3915C39.0479 14.4392 39.0747 14.504 39.0747 14.5716C39.0747 14.605 39.0682 14.6381 39.0554 14.669C39.0426 14.6999 39.0238 14.728 39.0002 14.7516C38.9765 14.7753 38.9484 14.794 38.9175 14.8068C38.8866 14.8196 38.8535 14.8262 38.8201 14.8262C38.7866 14.8262 38.7535 14.8196 38.7226 14.8068C38.6917 14.794 38.6637 14.7753 38.64 14.7516C38.6164 14.728 38.5976 14.6999 38.5848 14.669C38.572 14.6381 38.5654 14.605 38.5654 14.5716" fill="white"/>
<path d="M41.3353 11.0309C41.3336 10.9975 41.3385 10.964 41.3498 10.9325C41.3611 10.9009 41.3785 10.8719 41.401 10.8471C41.4235 10.8223 41.4507 10.8022 41.4809 10.7879C41.5112 10.7736 41.5441 10.7654 41.5775 10.7638C41.6295 10.7601 41.6813 10.7721 41.7265 10.7981C41.7716 10.8242 41.8079 10.8631 41.8306 10.91C41.8534 10.9568 41.8617 11.0094 41.8543 11.061C41.8469 11.1125 41.8243 11.1607 41.7893 11.1993C41.7543 11.2379 41.7085 11.2651 41.6579 11.2775C41.6073 11.2898 41.5542 11.2867 41.5053 11.2686C41.4565 11.2505 41.4142 11.2182 41.3839 11.1758C41.3536 11.1335 41.3367 11.083 41.3353 11.0309" fill="white"/>
<path d="M41.8076 10.2424C41.8076 10.1749 41.8344 10.1101 41.8822 10.0624C41.93 10.0146 41.9947 9.98779 42.0623 9.98779C42.1298 9.98779 42.1946 10.0146 42.2423 10.0624C42.2901 10.1101 42.3169 10.1749 42.3169 10.2424C42.3186 10.2764 42.3135 10.3103 42.3018 10.3423C42.2901 10.3742 42.2722 10.4035 42.249 10.4284C42.2259 10.4533 42.198 10.4733 42.167 10.4872C42.136 10.5012 42.1025 10.5087 42.0685 10.5095C42.0353 10.5112 42.0022 10.5062 41.971 10.4949C41.9398 10.4835 41.9112 10.466 41.8869 10.4435C41.8626 10.4209 41.8431 10.3937 41.8295 10.3634C41.8158 10.3331 41.8084 10.3005 41.8076 10.2673" fill="white"/>
<path d="M12.5342 30.0499C12.5342 30.0499 10.82 27.0872 12.0063 24.0437C13.3169 20.6834 17.0808 21.1182 17.0808 21.1182C16.4578 20.8353 15.7769 20.7033 15.0933 20.7331C12.4783 20.8325 10.4473 23.2176 10.5591 26.0685C10.5803 26.8356 10.768 27.5889 11.109 28.2763C11.45 28.9638 11.9363 29.5689 12.5342 30.0499" fill="white"/>
<path d="M6.1984 20.6026C5.82029 20.2252 5.52033 19.7769 5.3157 19.2835C5.11106 18.79 5.00577 18.261 5.00586 17.7268C5.025 16.6521 5.46042 15.6268 6.22044 14.8668C6.98045 14.1068 8.00574 13.6714 9.08039 13.6523C11.3972 13.5218 15.6518 14.2175 18.3599 13.8634C19.2978 18.0498 23.4531 22.1181 26.7139 23.969C22.8444 22.2423 19.1363 18.3231 15.8941 16.5156C12.509 14.6523 9.11145 14.3603 7.32884 16.0001C5.79468 17.4162 5.91269 19.4162 6.1984 20.5964" fill="white"/>
<path d="M15.783 24.8511C15.9942 26.0623 13.8203 26.4474 13.8203 26.4474C15.7955 26.7952 16.5346 25.7331 16.5346 25.7331L15.783 24.8511Z" fill="white"/>
<path d="M31.5462 25.4722C31.5462 25.4722 30.2605 27.3355 31.1425 30.6337C30.4745 31.1879 29.6916 31.5868 28.8506 31.8014C28.8506 31.8014 31.832 32.1864 32.7698 30.5964C30.9624 29.1989 31.5276 25.7268 31.5276 25.4908" fill="white"/>
<path d="M37.5095 6.39727C37.2596 6.29988 36.9913 6.25911 36.7238 6.27789C36.4563 6.29666 36.1963 6.37452 35.9625 6.50585C35.7287 6.63718 35.527 6.81872 35.3718 7.0374C35.2166 7.25607 35.1118 7.50643 35.065 7.77046C35.0182 8.0345 35.0305 8.30563 35.101 8.56433C35.1716 8.82303 35.2986 9.06287 35.473 9.26657C35.6474 9.47028 35.8648 9.63278 36.1095 9.74237C36.3543 9.85197 36.6202 9.90593 36.8883 9.90037C38.056 10.1053 39.1368 9.49665 39.3107 8.53392C39.3539 8.01497 39.1912 7.49987 38.8576 7.10002C38.524 6.70016 38.0464 6.44771 37.5281 6.39727H37.5095ZM38.9815 8.45318C38.9829 8.77242 38.8856 9.08428 38.7027 9.34598C38.5199 9.60767 38.2606 9.80637 37.9603 9.91482C37.66 10.0233 37.3336 10.0361 37.0257 9.95167C36.7178 9.8672 36.4437 9.68953 36.2408 9.44304C36.0379 9.19655 35.9163 8.89331 35.8926 8.57494C35.8689 8.25658 35.9443 7.93869 36.1085 7.66489C36.2727 7.3911 36.5175 7.17481 36.8095 7.04571C37.1015 6.91661 37.4263 6.88104 37.7393 6.94385C38.1025 6.98311 38.436 7.16307 38.6682 7.44519C38.9004 7.7273 39.0128 8.08914 38.9815 8.45318" fill="white"/>
<path d="M37.4042 8.15522C37.4022 7.97838 37.455 7.80525 37.5553 7.65959C37.6556 7.51393 37.7985 7.40287 37.9644 7.34162C38.1303 7.28037 38.3111 7.27194 38.482 7.31748C38.6529 7.36303 38.8055 7.46033 38.9189 7.59603C39.0323 7.73172 39.101 7.89918 39.1155 8.07544C39.13 8.2517 39.0896 8.42812 38.9999 8.58053C38.9102 8.73294 38.7755 8.85387 38.6144 8.92674C38.4532 8.9996 38.2735 9.02083 38.0998 8.98752C37.8975 8.9686 37.7109 8.8705 37.5806 8.71461C37.4503 8.55872 37.3869 8.35766 37.4042 8.15522" fill="white"/>
<path d="M34.9692 23.8263C35.6835 25.1555 33.3916 25.6462 33.3916 25.6462C34.9817 25.9133 35.8761 24.8946 35.8761 24.4661C35.5345 23.0313 35.1556 24.1244 34.9444 23.8449" fill="white"/>
<path d="M39.7393 7.45958C39.459 6.96736 39.0588 6.55397 38.5759 6.25785C38.0931 5.96173 37.5432 5.79249 36.9774 5.76584C36.4116 5.73919 35.8482 5.856 35.3396 6.10543C34.8311 6.35485 34.3938 6.7288 34.0685 7.19251C33.9771 7.3037 33.8452 7.37401 33.7019 7.38799C33.5587 7.40197 33.4157 7.35846 33.3045 7.26704C33.1933 7.17561 33.123 7.04376 33.109 6.90049C33.095 6.75721 33.1385 6.61426 33.23 6.50307C33.601 6.08997 34.055 5.75973 34.5623 5.53391C35.0696 5.3081 35.6188 5.19177 36.1741 5.19251C36.9236 5.18652 37.6589 5.39733 38.2915 5.79955C38.924 6.20177 39.4268 6.77825 39.7393 7.45958" fill="white"/>
<path d="M36.1181 14.379C34.5909 14.2311 33.1391 13.6443 31.938 12.6896C30.852 11.9211 29.959 10.9112 29.3293 9.7393C29.2818 9.65685 29.2689 9.559 29.2933 9.46707C29.3178 9.37515 29.3776 9.29662 29.4597 9.24862C29.5001 9.22341 29.5452 9.20674 29.5922 9.19967C29.6393 9.19259 29.6873 9.19525 29.7333 9.20748C29.7793 9.2197 29.8223 9.24124 29.8596 9.27075C29.897 9.30026 29.9279 9.33712 29.9504 9.37905C30.5493 10.5944 31.3955 11.6713 32.4349 12.5405C33.4912 13.4578 34.7591 14.0981 36.1243 14.4039" fill="white"/>
<path d="M34.5214 17.6522C32.0097 17.4071 29.6714 16.2622 27.9375 14.4286C27.1049 13.5816 26.4166 12.6039 25.9003 11.5342C25.8555 11.4499 25.8454 11.3515 25.872 11.2599C25.8987 11.1682 25.9601 11.0906 26.0431 11.0435C26.0847 11.0206 26.1304 11.006 26.1776 11.0008C26.2248 10.9955 26.2726 10.9996 26.3182 11.0129C26.3638 11.0262 26.4063 11.0483 26.4433 11.0781C26.4803 11.1079 26.5111 11.1447 26.5338 11.1864C27.116 12.5265 27.9344 13.7509 28.9499 14.8013C30.4318 16.3399 32.3828 17.3428 34.4965 17.6522" fill="white"/>
<path d="M22.3476 12.7392C22.4382 12.7093 22.537 12.7159 22.6228 12.7576C22.7087 12.7994 22.7748 12.873 22.8072 12.9628C23.4583 14.8891 24.5492 16.6372 25.9935 18.0684C28.0575 20.1514 30.8231 21.3913 33.7513 21.5466C32.1839 21.5448 30.6324 21.232 29.1867 20.6264C27.741 20.0209 26.4298 19.1345 25.329 18.0187C23.928 16.6515 22.8371 14.9994 22.1302 13.174C22.0983 13.0842 22.1032 12.9854 22.144 12.8993C22.1847 12.8131 22.2579 12.7466 22.3476 12.7144" fill="white"/>
<path d="M35.0622 9.94401C35.6844 10.3407 36.4051 10.5559 37.143 10.5651C37.7705 10.615 38.3941 10.4296 38.8924 10.045C39.3907 9.66037 39.728 9.10405 39.8386 8.48438C39.7667 9.21123 39.4227 9.88403 38.8755 10.3679C38.3283 10.8517 37.6185 11.1107 36.8883 11.0931C36.1368 11.1284 35.3909 10.9473 34.7392 10.5713C34.6962 10.5509 34.6577 10.5219 34.626 10.4862C34.5944 10.4505 34.5704 10.4087 34.5553 10.3635C34.5402 10.3183 34.5344 10.2704 34.5383 10.2229C34.5421 10.1754 34.5556 10.1291 34.5777 10.0869C34.5976 10.0432 34.6262 10.0041 34.6616 9.97187C34.6971 9.93962 34.7388 9.9149 34.7841 9.89922C34.8294 9.88354 34.8774 9.87722 34.9252 9.88065C34.973 9.88408 35.0196 9.89718 35.0622 9.91917" fill="white"/>
</g>
<defs>
<clipPath id="clip0_5852_83540">
<rect width="43" height="37.6335" fill="white"/>
</clipPath>
</defs>
</svg>
